<?xml version='1.0' encoding='utf-8'?>
<svg xmlns="http://www.w3.org/2000/svg" width="1e3" height="1e3" version="1.1" viewBox="0 0 264.58 264.58"> <rect width="264.58" height="264.58" fill="#f7f7f7" style="paint-order:stroke markers fill"/> <circle cx="132.29" cy="132.29" r="63.5" fill="none" stroke="#4d4d4d" stroke-linecap="round" stroke-miterlimit="4" stroke-width="7.9375" style="paint-order:fill markers stroke"/> <g transform="translate(-317.94 -8.9217)" fill="#0573e1"> <ellipse cx="450.23" cy="105.14" rx="7.9375" ry="7.9919" style="paint-order:fill markers stroke"/> <path d="m417.93 113.49c-2.4161 0.0537-4.4456 1.7167-4.7116 3.9936-0.29361 2.5124 1.6742 4.7925 4.4122 5.1125l18.354 2.145c2.1942 0.25642 3.8821 2.2541 3.8916 4.463 0.03 7.0223 0.77086 14.341-0.65233 20.816l-6.2372 29.344c-0.57315 2.6964 0.95731 5.2906 3.4315 5.8166 2.4742 0.5259 4.9275-1.2216 5.5006-3.918l6.2372-29.344c0.51867-2.4401 3.7222-2.0089 4.1492 0l6.2372 29.344c0.57314 2.6964 3.0264 4.4439 5.5006 3.918 2.4742-0.52592 4.0047-3.1201 3.4315-5.8166l-6.2372-29.344c-1.44-6.1803-0.98421-13.84-0.7966-20.817 0.0594-2.2074 1.8419-4.2056 4.0361-4.462l18.354-2.145c2.738-0.31998 4.7058-2.6001 4.4122-5.1125-0.29361-2.5124-2.7343-4.2774-5.4723-3.9574 0 0-20.955 3.6859-31.54 3.6859-10.585 0-31.54-3.6859-31.54-3.6859-0.25669-0.03-0.51074-0.0417-0.76067-0.0361z" stroke-linecap="round" stroke-width="7.9375" style="paint-order:fill markers stroke"/> </g> </svg>