<svg width="96" height="97" xmlns="http://www.w3.org/2000/svg" xmlns:xlink="http://www.w3.org/1999/xlink" xml:space="preserve" overflow="hidden"><g transform="translate(-596 -669)"><g><g><g><g><path d="M644 714C639 714 635 710 635 705 635 700 639 696 644 696 649 696 653 700 653 705 653 710 649 714 644 714ZM644 684C637.1 684 630.6 687.4 626.7 693.2 622.8 698.9 622 706.2 624.5 712.7L634 733.7 642.2 750.9C642.5 751.6 643.2 752 644 752 644.8 752 645.5 751.6 645.8 750.9L654 733.7 663.5 712.7C666 706.2 665.2 698.9 661.3 693.2 657.4 687.4 650.9 684 644 684Z" fill="#FFFFFF" fill-rule="nonzero" fill-opacity="1"/></g></g></g></g></g></svg>