<svg width="75" height="76" xmlns="http://www.w3.org/2000/svg" xmlns:xlink="http://www.w3.org/1999/xlink" xml:space="preserve" overflow="hidden"><g transform="translate(-18 -1880)"><g><g><g><g><path d="M56 1914.92C52.1458 1914.92 49.0625 1911.83 49.0625 1907.98 49.0625 1904.12 52.1458 1901.04 56 1901.04 59.8542 1901.04 62.9375 1904.12 62.9375 1907.98 62.9375 1911.83 59.8542 1914.92 56 1914.92ZM56 1891.79C50.6812 1891.79 45.6708 1894.41 42.6646 1898.88 39.6583 1903.28 39.0417 1908.9 40.9688 1913.91L48.2917 1930.1 54.6125 1943.36C54.8438 1943.9 55.3833 1944.21 56 1944.21 56.6167 1944.21 57.1562 1943.9 57.3875 1943.36L63.7083 1930.1 71.0312 1913.91C72.9583 1908.9 72.3417 1903.28 69.3354 1898.88 66.3292 1894.41 61.3187 1891.79 56 1891.79Z" fill="#FF0000" fill-rule="nonzero" fill-opacity="1"/></g></g></g></g></g></svg>