<svg width="106" height="104" xmlns="http://www.w3.org/2000/svg" xmlns:xlink="http://www.w3.org/1999/xlink" xml:space="preserve" overflow="hidden"><g transform="translate(-994 -676)"><g><g><g><g><path d="M1096.55 745.486C1096.24 744.621 1095.57 743.929 1094.72 743.581 1093.13 742.984 1091.35 743.671 1090.57 745.178L1089.87 746.507C1089.68 746.838 1089.37 747.08 1089.01 747.174 1088.63 747.27 1088.24 747.208 1087.92 747.003 1087.4 746.628 1087.18 745.966 1087.36 745.356L1087.52 744.756 1093.24 729.17C1095.33 722.94 1094.92 717.695 1091.87 711.62L1085.88 700.202C1084.7 697.823 1082.27 696.322 1079.61 696.331L1073.83 696.331 1071.44 694.586C1071.06 694.298 1070.64 694.064 1070.2 693.889 1067.06 692.709 1063.52 693.457 1061.13 695.807 1060.53 696.4 1059.97 696.925 1059.63 697.235L1058.19 697.165C1057.46 697.135 1056.73 697.043 1056.02 696.892L1049.3 694.972C1048.14 694.64 1046.94 694.471 1045.73 694.471L1024.95 694.471C1020.74 694.488 1016.6 695.439 1012.8 697.254L1012.6 697.35C1012.43 697.434 1012.26 697.518 1012.1 697.605 1011.38 697.968 1010.68 698.375 1010.02 698.824 1009.8 698.969 1009.59 699.122 1009.38 699.272 1009.3 699.331 1009.21 699.386 1009.13 699.445 1007.7 700.473 1006.44 701.725 1005.4 703.153 1005.39 703.17 1005.39 703.19 1005.38 703.206 1002.78 706.607 1001.38 710.764 1001.37 715.041L1001.37 736.156C1001.47 738.12 1000.49 739.983 998.824 741.023 998.293 741.299 998.087 741.953 998.363 742.484 998.639 743.014 999.293 743.221 999.824 742.945 999.842 742.936 999.86 742.926 999.877 742.915 1002.14 741.602 1003.53 739.185 1003.54 736.57L1003.54 715.041C1003.58 708.217 1007.56 702.032 1013.76 699.174 1017.25 697.513 1021.08 696.647 1024.95 696.638L1045.72 696.638C1046.73 696.638 1047.73 696.778 1048.7 697.056L1055.42 698.975C1056.31 699.191 1057.22 699.311 1058.14 699.331L1058.56 699.351 1055.17 707.07C1054.55 708.408 1054.44 709.924 1054.85 711.337 1055.38 713.013 1056.63 714.36 1058.27 715L1068.83 719.186C1070.56 719.871 1072.52 719.685 1074.09 718.685L1075.66 717.688C1076.15 717.34 1076.26 716.663 1075.91 716.176 1075.59 715.724 1074.98 715.59 1074.49 715.867L1072.93 716.865C1071.94 717.493 1070.71 717.609 1069.62 717.179L1059.16 713.034C1058.42 712.757 1057.78 712.252 1057.34 711.591 1056.67 710.559 1056.57 709.259 1057.07 708.134L1061.2 698.737C1061.56 698.412 1062.09 697.914 1062.65 697.355 1064.44 695.597 1067.08 695.035 1069.43 695.914 1069.69 696.022 1069.93 696.164 1070.16 696.337L1072.84 698.287C1073.03 698.422 1073.25 698.494 1073.48 698.494L1079.61 698.494C1081.45 698.49 1083.14 699.535 1083.95 701.188L1089.95 712.604C1092.65 717.452 1093.11 723.239 1091.2 728.452L1085.46 744.102 1085.27 744.794C1084.84 746.326 1085.44 747.964 1086.77 748.841 1087.6 749.365 1088.61 749.522 1089.55 749.274 1090.5 749.026 1091.3 748.399 1091.77 747.541L1092.49 746.197C1092.74 745.671 1093.35 745.412 1093.9 745.59 1094.19 745.705 1094.41 745.936 1094.52 746.226 1094.62 746.514 1094.6 746.832 1094.46 747.102L1093.68 748.571C1092.67 750.407 1090.74 751.55 1088.65 751.555 1087.92 751.555 1087.2 751.413 1086.52 751.138 1084.17 750.17 1082.74 747.777 1082.99 745.251L1083.98 730.542C1084.08 727.622 1081.81 725.167 1078.89 725.053L1076.75 725.019C1075.28 725.171 1073.81 724.728 1072.68 723.787L1071.48 722.704C1071.4 722.626 1071.3 722.563 1071.2 722.516 1070.48 722.192 1069.66 722.197 1068.94 722.53 1068.21 722.876 1067.66 723.531 1067.46 724.318L1067.37 724.733C1066.89 726.976 1065.54 728.937 1063.62 730.187L1059.88 732.619C1058.66 733.235 1057.46 733.811 1056.3 734.347 1055.9 734.526 1055.66 734.932 1055.68 735.367L1055.68 756.194 1055.73 756.519 1056.75 759.771C1056.75 759.777 1056.75 759.783 1056.74 759.785 1056.74 759.785 1056.74 759.785 1056.74 759.785L1049.24 759.785C1049.23 759.785 1049.23 759.78 1049.23 759.774 1049.23 759.773 1049.23 759.772 1049.23 759.771L1050.22 756.507 1050.27 756.192 1050.27 738.461C1050.27 738.304 1050.24 738.148 1050.18 738.003 1049.99 737.436 1049.38 737.126 1048.81 737.312 1039.9 740.231 1031.51 740.662 1020.76 738.754 1019.85 738.591 1018.94 738.368 1018.06 738.086L1017.78 738.049C1017.18 738.049 1016.69 738.534 1016.69 739.132L1016.69 756.194 1016.74 756.513 1017.75 759.771C1017.75 759.777 1017.75 759.783 1017.74 759.785 1017.74 759.785 1017.74 759.785 1017.74 759.785L1010.24 759.785C1010.23 759.785 1010.23 759.781 1010.23 759.775 1010.23 759.773 1010.23 759.772 1010.23 759.771L1011.22 756.508 1011.27 756.19 1011.27 734.825C1011.27 734.811 1011.27 734.801 1011.27 734.787 1011.27 734.773 1011.27 734.76 1011.27 734.746 1011.27 734.681 1011.25 734.617 1011.23 734.557 1011.18 734.354 1011.08 734.168 1010.92 734.024 1010.17 733.343 1009.48 732.597 1008.85 731.796 1008.15 730.891 1007.51 729.936 1006.94 728.94 1006.65 728.421 1005.98 728.24 1005.46 728.537 1004.94 728.834 1004.76 729.496 1005.06 730.016 1005.68 731.102 1006.37 732.142 1007.13 733.13 1007.74 733.894 1008.39 734.613 1009.1 735.281L1009.1 756.03 1008.15 759.153C1007.8 760.298 1008.44 761.509 1009.59 761.858 1009.79 761.92 1010.01 761.952 1010.22 761.952L1017.75 761.952C1018.95 761.952 1019.92 760.982 1019.92 759.785 1019.92 759.567 1019.88 759.351 1019.82 759.143L1018.85 756.028 1018.85 740.567C1019.36 740.691 1019.87 740.801 1020.38 740.892 1024.48 741.654 1028.64 742.053 1032.81 742.083 1037.99 742.089 1043.15 741.318 1048.1 739.796L1048.1 756.031 1047.15 759.153C1046.8 760.298 1047.45 761.509 1048.59 761.858 1048.8 761.92 1049.01 761.952 1049.23 761.952L1056.75 761.952C1057.95 761.952 1058.92 760.982 1058.92 759.785 1058.92 759.567 1058.88 759.351 1058.82 759.143L1057.85 756.028 1057.85 736.017C1058.85 735.548 1059.88 735.054 1060.91 734.527L1061.01 734.471 1063.27 733.002 1063.27 756.194 1063.32 756.513 1064.33 759.771C1064.34 759.777 1064.33 759.783 1064.33 759.785 1064.33 759.785 1064.32 759.785 1064.32 759.785L1061.14 759.785C1060.54 759.785 1060.06 760.27 1060.06 760.868 1060.06 761.467 1060.54 761.952 1061.14 761.952L1064.33 761.952C1065.53 761.952 1066.5 760.982 1066.5 759.785 1066.5 759.567 1066.47 759.351 1066.4 759.143L1065.43 756.028 1065.43 731.542C1067.51 729.982 1068.95 727.723 1069.49 725.183L1069.56 724.839C1069.6 724.686 1069.71 724.559 1069.85 724.492 1069.96 724.446 1070.07 724.431 1070.19 724.45L1071.21 725.388C1072.74 726.693 1074.72 727.338 1076.73 727.182L1078.82 727.216C1080.53 727.288 1081.86 728.717 1081.81 730.423L1080.83 745.069C1080.5 748.541 1082.48 751.82 1085.71 753.144 1086.64 753.524 1087.64 753.719 1088.65 753.718 1091.54 753.712 1094.19 752.135 1095.58 749.602L1096.37 748.117C1096.8 747.306 1096.87 746.35 1096.55 745.486Z" fill="#FFFFFF" fill-rule="nonzero" fill-opacity="1"/><path d="M1026.44 756.028 1026.44 744.278C1026.44 743.68 1025.95 743.195 1025.35 743.195 1024.76 743.195 1024.27 743.68 1024.27 744.278L1024.27 756.195 1024.32 756.514 1025.33 759.771C1025.34 759.777 1025.33 759.783 1025.33 759.785 1025.33 759.785 1025.32 759.785 1025.32 759.785L1022.14 759.785C1021.54 759.785 1021.06 760.27 1021.06 760.868 1021.06 761.467 1021.54 761.952 1022.14 761.952L1025.33 761.952C1026.53 761.952 1027.5 760.982 1027.5 759.785 1027.5 759.567 1027.47 759.351 1027.4 759.143Z" fill="#FFFFFF" fill-rule="nonzero" fill-opacity="1"/><path d="M1083.84 711.75C1083.84 712.947 1082.87 713.917 1081.67 713.917 1080.47 713.917 1079.5 712.947 1079.5 711.75 1079.5 710.553 1080.47 709.583 1081.67 709.583 1082.87 709.583 1083.84 710.553 1083.84 711.75Z" fill="#FFFFFF" fill-rule="nonzero" fill-opacity="1"/></g></g></g></g></g></svg>