<svg width="198" height="198" xmlns="http://www.w3.org/2000/svg" xmlns:xlink="http://www.w3.org/1999/xlink" xml:space="preserve" overflow="hidden"><g transform="translate(-541 -261)"><path d="M708.475 407.77C707.254 407.53 706.056 407.185 704.895 406.738 704.887 406.731 704.887 406.72 704.894 406.712 704.894 406.712 704.894 406.712 704.895 406.711 705.131 406.331 705.408 405.977 705.719 405.656 707.856 403.312 712.472 402.578 716.931 401.869 723.139 400.87 730.179 399.742 732.606 393.844 733.372 392.213 733.294 390.311 732.4 388.747 729.84 384.387 720.935 383.317 712.322 382.281 708.832 381.987 705.375 381.395 701.986 380.512 701.976 380.507 701.972 380.494 701.977 380.484 701.979 380.48 701.982 380.477 701.986 380.474 702.859 379.918 704.406 379.156 705.618 378.562 710.304 376.265 715.151 373.885 715.18 370.065 715.203 366.802 711.55 364.942 710.35 364.331 701.937 360.045 692.52 360.883 683.407 361.693 675.277 362.419 667.588 363.063 661.048 360.186 662.955 357.305 664.524 354.214 665.724 350.974 668.574 343.753 669.269 335.859 667.724 328.25 666.049 321.031 662.065 315.931 656.502 313.856 656.432 313.829 656.358 313.819 656.296 313.794L656.296 313.794 656.125 313.75C655.376 313.495 654.607 313.299 653.827 313.167L574.14 292.934C574.016 292.903 573.625 292.818 573.625 292.818 565.375 291.224 555.741 298.525 551.42 310.1 549.25 315.6 548.724 321.612 549.904 327.406 550.709 332.315 553.942 336.484 558.496 338.486L558.496 338.486 629.149 370.579C629.176 370.591 629.174 370.607 629.149 370.618 608.679 376.966 605.08 384.653 604.517 387.84 603.512 393.514 610.046 396.24 615.813 398.645 622.318 401.359 625.072 402.935 624.191 405.092 623.667 406.373 623.092 407.526 622.584 408.541 620.728 412.268 618.802 416.119 624.399 420.031 630.488 424.286 639.571 421.99 648.353 419.771 653.877 418.375 659.59 416.941 663.558 417.531 666.951 418.047 666.973 418.604 667.033 420.099 667.208 424.536 669.362 427.291 679.841 428.242 682.211 428.448 684.536 428.557 686.8 428.557 702.801 428.557 715.644 423.504 718.445 417.905 719.514 415.955 719.202 413.538 717.674 411.923 715.38 409.397 711.548 408.496 708.475 407.77ZM663.698 329.176C665.058 335.996 664.414 343.065 661.842 349.527 660.603 352.857 658.93 356.009 656.867 358.903L626.505 350.991C626.537 346.308 627.405 341.669 629.069 337.292 633.926 324.271 644.158 315.825 652.787 317.156L655.108 317.743C659.309 319.34 662.355 323.393 663.698 329.176ZM571.284 336.601C571.696 336.345 572.098 336.127 572.498 335.834 577.186 332.229 580.727 327.342 582.693 321.765 584.862 316.264 585.389 310.251 584.209 304.457 583.795 302.624 583.115 300.862 582.19 299.226L643.218 314.722C635.875 318.047 628.986 325.697 625.208 335.85 623.505 340.354 622.555 345.106 622.395 349.919ZM553.905 326.46C552.908 321.456 553.382 316.271 555.27 311.531 558.535 302.784 565.364 296.698 571.275 296.698 572.22 296.693 573.159 296.858 574.045 297.185 577.352 298.701 579.664 301.791 580.188 305.391 581.184 310.396 580.711 315.582 578.824 320.324 577.142 325.14 574.102 329.366 570.071 332.492 567.316 334.871 563.542 335.689 560.049 334.666 556.742 333.15 554.428 330.06 553.905 326.46ZM577.189 342.403 622.537 354.225C622.66 355.691 622.884 357.147 623.205 358.583 623.646 360.53 624.31 362.42 625.183 364.216 625.197 364.243 625.183 364.253 625.158 364.241L577.176 342.442C577.057 342.386 577.063 342.37 577.189 342.403ZM714.737 416.051C712.812 419.899 699.617 425.895 680.192 424.125 671.268 423.315 671.199 421.592 671.133 419.928 671.024 417.166 670.393 414.39 664.154 413.446 659.363 412.72 653.513 414.196 647.322 415.762 639.437 417.756 631.282 419.812 626.742 416.642 624.061 414.77 624.354 414.184 626.253 410.377 626.796 409.294 627.408 408.069 627.988 406.643 630.566 400.33 623.244 397.28 617.381 394.829 613.049 393.021 608.128 390.973 608.557 388.549 608.718 387.64 610.844 379.487 635.667 373.033L635.667 373.033C636.368 372.857 636.925 372.322 637.129 371.628 637.396 370.607 636.877 369.543 635.908 369.125L634.413 368.446C630.583 366.041 627.967 362.111 627.225 357.651 627.05 356.896 626.905 356.122 626.794 355.337L658.562 363.609C666.27 367.334 675.157 366.563 683.756 365.798 692.284 365.035 701.106 364.251 708.461 367.998 710.606 369.091 711.039 369.877 711.039 370.028 711.028 371.3 705.767 373.881 703.785 374.854 700.559 376.438 698.693 377.399 697.884 378.734 697.221 379.718 697.126 380.98 697.635 382.052 698.926 384.705 703.387 385.352 711.818 386.369 717.985 387.114 727.306 388.225 728.83 390.828 728.927 390.991 729.15 391.375 728.782 392.272 727.238 396.032 721.912 396.886 716.275 397.789 711.119 398.614 705.783 399.474 702.663 402.846 701.167 404.095 700.441 406.04 700.755 407.963 701.493 410.372 704.282 411.026 707.512 411.787 710.16 412.406 713.163 413.118 714.574 414.675 714.974 415.023 715.044 415.618 714.737 416.051Z" fill="#92D050"/><path d="M603.82 405.569C598.958 405.569 595.017 408.023 595.017 411.053 595.017 414.083 598.958 416.539 603.82 416.539 608.681 416.539 612.62 414.083 612.62 411.053 612.62 408.023 608.681 405.569 603.82 405.569ZM603.82 412.414C601.388 412.414 599.27 411.534 599.27 411.053 599.27 410.573 601.386 409.694 603.82 409.694 606.253 409.694 608.37 410.622 608.37 411.053 608.37 411.484 606.251 412.414 603.82 412.414Z" fill="#92D050"/><path d="M661.827 426.495C658.482 426.495 655.772 428.23 655.772 430.372 655.772 432.515 658.482 434.25 661.827 434.25 665.173 434.25 667.881 432.513 667.881 430.372 667.881 428.232 665.162 426.495 661.827 426.495Z" fill="#92D050"/><path d="M727.176 406.291C723.832 406.291 721.122 408.027 721.122 410.168 721.122 412.309 723.832 414.048 727.176 414.048 730.519 414.048 733.231 412.311 733.231 410.168 733.231 408.025 730.519 406.291 727.176 406.291Z" fill="#92D050"/></g></svg>