<svg width="111" height="110" xmlns="http://www.w3.org/2000/svg" xmlns:xlink="http://www.w3.org/1999/xlink" xml:space="preserve" overflow="hidden"><g transform="translate(-405 -776)"><g><g><g><g><path d="M443.812 788.845 443.812 834.753C443.812 834.759 443.807 834.764 443.801 834.764 443.795 834.764 443.79 834.759 443.79 834.753L441.436 824.132C441.098 822.469 440.186 820.979 438.859 819.922 435.849 817.595 431.521 818.149 429.194 821.159 428.935 821.495 428.707 821.853 428.513 822.231 427.763 823.757 427.571 825.498 427.97 827.151L434.809 857.912C435.259 859.408 436.158 860.73 437.383 861.699L449.542 871.094 449.542 879.125 451.833 879.125 451.833 870.531C451.833 870.176 451.669 869.841 451.388 869.624L438.799 859.897C437.965 859.239 437.347 858.347 437.025 857.335L430.19 826.581C429.935 825.531 430.034 824.427 430.473 823.44 431.551 821.134 434.293 820.139 436.599 821.217 437.889 821.819 438.827 822.984 439.142 824.372L443.84 845.57C443.978 846.188 444.59 846.577 445.208 846.439 445.731 846.323 446.103 845.859 446.104 845.323L446.104 788.809C446.06 786.295 447.997 784.188 450.506 784.021 453.009 783.895 455.14 785.823 455.265 788.326 455.27 788.418 455.272 788.511 455.271 788.604L455.271 819.542C455.301 820.174 455.838 820.663 456.471 820.634 457.103 820.604 457.592 820.067 457.562 819.434 457.39 818.378 457.646 817.296 458.275 816.43 462.239 811.692 467.877 814.039 468.824 818.301 468.961 818.918 469.573 819.308 470.191 819.17 470.404 819.123 470.598 819.016 470.752 818.862 471.803 817.826 473.221 817.247 474.696 817.25 477.927 817.339 480.495 819.992 480.479 823.224L480.479 823.667C480.479 824.299 480.992 824.812 481.625 824.812 481.929 824.812 482.22 824.692 482.435 824.477 483.454 823.484 484.83 822.944 486.252 822.979 489.439 823.13 491.944 825.761 491.938 828.952L491.938 849.333C491.938 857.825 489.061 861.512 486.522 864.765 484.594 867.238 482.771 869.574 482.771 873.396L482.771 879.125 485.062 879.125 485.062 873.396C485.062 870.363 486.504 868.515 488.33 866.177 490.959 862.806 494.229 858.615 494.229 849.333L494.229 829.025C494.254 824.492 490.635 820.779 486.104 820.688 484.9 820.695 483.713 820.983 482.639 821.527 481.817 817.153 477.605 814.273 473.231 815.095 472.261 815.277 471.333 815.636 470.493 816.153 468.661 812.162 463.94 810.412 459.948 812.245 459.063 812.651 458.26 813.217 457.58 813.913 457.569 813.924 457.561 813.92 457.561 813.905L457.561 788.604C457.602 784.847 454.59 781.768 450.833 781.728 450.753 781.727 450.672 781.727 450.591 781.729 446.774 781.866 443.764 785.025 443.812 788.845Z" stroke="#FFFFFF" stroke-width="1.14584" stroke-linecap="butt" stroke-linejoin="miter" stroke-miterlimit="4" stroke-opacity="1" fill="#FFFFFF" fill-rule="nonzero" fill-opacity="1"/></g></g></g></g></g></svg>