<svg width="32" height="33" xmlns="http://www.w3.org/2000/svg" xmlns:xlink="http://www.w3.org/1999/xlink" xml:space="preserve" overflow="hidden"><g transform="translate(-447 -135)"><path d="M23.7667 20.6333C23.0333 19.9 21.8333 19.9333 20.9333 20.6333L19.5333 19.2333C23.1667 15.3 22.9333 9.2 19 5.56667 15.0667 1.93333 9 2.2 5.36667 6.13333 1.73333 10.0667 2 16.1667 5.9 19.8 9.63333 23.2667 15.4 23.2333 19.1 19.7333L20.5 21.1333C20.2 21.5 20.0333 21.9667 19.9667 22.4333 19.9 23 20.1 23.5667 20.5 23.9667L25.2 28.6667C25.5667 29 26.0333 29.2 26.5333 29.2 27.2 29.2 27.8 28.9333 28.2667 28.4667 28.7 28.0667 28.9667 27.5 29 26.9 29.0667 26.3333 28.8667 25.7667 28.4667 25.3667L23.7667 20.6333ZM6.13333 19.0333C2.63333 15.5333 2.63333 9.83333 6.13333 6.3 9.63333 2.76667 15.3333 2.8 18.8667 6.3 22.4 9.8 22.3667 15.5 18.8667 19.0333 17.1667 20.7333 14.9 21.6667 12.5 21.6667 10.1333 21.6667 7.83333 20.7333 6.13333 19.0333ZM27.7667 27.9333C27.1333 28.5667 26.1667 28.6667 25.6333 28.1333L20.9667 23.4667C20.7 23.2 20.6 22.8333 20.6333 22.4667 20.6667 22.0333 20.8667 21.6333 21.2 21.3333 21.5333 21 22 20.8 22.4667 20.7667 22.8 20.7667 23.1 20.8667 23.3333 21.1L28 25.8C28.2667 26.0667 28.3667 26.4333 28.3333 26.8 28.2667 27.2333 28.1 27.6333 27.7667 27.9333 27.7667 27.9333 27.7667 27.9333 27.7667 27.9333Z" stroke="#FFFFFF" stroke-width="1.30612" fill="#FFFFFF" transform="matrix(1 0 0 1.03125 447 135)"/></g></svg>