<svg width="1214" height="999" xmlns="http://www.w3.org/2000/svg" xmlns:xlink="http://www.w3.org/1999/xlink" xml:space="preserve" overflow="hidden"><defs><clipPath id="clip0"><path d="M3428.77 6269.97 3262.1 6722.19 2809.88 6555.53 2976.55 6103.31Z" fill-rule="nonzero" clip-rule="nonzero"/></clipPath><clipPath id="clip1"><path d="M3428.77 6269.97 3262.1 6722.19 2809.88 6555.53 2976.55 6103.31Z" fill-rule="evenodd" clip-rule="evenodd"/></clipPath><clipPath id="clip2"><path d="M3428.77 6269.97 3262.1 6722.19 2809.88 6555.53 2976.55 6103.31Z" fill-rule="evenodd" clip-rule="evenodd"/></clipPath><clipPath id="clip3"><path d="M3749.44 5816.25 4015.35 6541.06 3290.53 6806.96 3024.63 6082.15Z" fill-rule="nonzero" clip-rule="nonzero"/></clipPath><clipPath id="clip4"><path d="M3749.44 5816.25 4015.35 6541.06 3290.53 6806.96 3024.63 6082.15Z" fill-rule="evenodd" clip-rule="evenodd"/></clipPath><clipPath id="clip5"><path d="M3749.44 5816.25 4015.35 6541.06 3290.53 6806.96 3024.63 6082.15Z" fill-rule="evenodd" clip-rule="evenodd"/></clipPath></defs><g transform="translate(-2805 -5811)"><g><g clip-path="url(#clip0)"><g clip-path="url(#clip1)"><g clip-path="url(#clip2)"><path d="M3075.68 6487.62 3068.73 6506.47 3031.05 6492.58 3037.99 6473.74Z" fill="#4EA72E" fill-rule="nonzero" fill-opacity="1"/><path d="M3171.65 6314.33 3117.83 6460.36 3098.99 6453.41 3152.81 6307.38Z" fill="#4EA72E" fill-rule="nonzero" fill-opacity="1"/><path d="M3133.96 6300.44 3100.98 6389.94 3082.14 6383 3115.12 6293.49Z" fill="#4EA72E" fill-rule="nonzero" fill-opacity="1"/><path d="M3096.28 6286.55 3056.35 6394.89 3037.51 6387.95 3077.44 6279.61Z" fill="#4EA72E" fill-rule="nonzero" fill-opacity="1"/><path d="M3043.93 6588.28 3038.72 6602.42 3123.51 6633.67 3265.87 6247.39 3181.08 6216.15 3175.87 6230.28C3171.56 6241.98 3158.57 6247.98 3146.86 6243.66 3135.16 6239.35 3129.16 6226.36 3133.48 6214.65L3138.69 6200.52 3049.18 6167.54 2906.83 6553.81 2991.62 6585.06 2996.83 6570.92C3001.62 6557.92 3016.05 6551.26 3029.06 6556.05 3042.07 6560.84 3048.73 6575.28 3043.93 6588.28ZM2975.73 6547.1 2945.51 6535.96 2969.81 6470.01 3007.5 6483.9 3014.44 6465.06 2976.76 6451.17 3067.03 6206.22 3102.06 6219.13C3100.22 6248.18 3122.27 6273.23 3151.32 6275.08 3169.08 6276.21 3186.21 6268.31 3196.87 6254.07L3227.19 6265.24 3136.92 6510.19 3099.23 6496.31 3092.29 6515.15 3129.97 6529.04 3105.67 6594.99 3075.44 6583.85C3077.8 6553.44 3055.05 6526.88 3024.64 6524.53 3005.53 6523.05 2987.01 6531.59 2975.73 6547.1Z" fill="#4EA72E" fill-rule="nonzero" fill-opacity="1"/><path d="M3183.87 6572.98 3168.05 6570.89 3157.46 6599.63 3208.98 6607.91 3249.99 6348.55 3196.7 6493.17 3183.87 6572.98Z" fill="#4EA72E" fill-rule="nonzero" fill-opacity="1"/></g></g></g><g clip-path="url(#clip3)"><g clip-path="url(#clip4)"><g clip-path="url(#clip5)"><path d="M3374.54 6084.42C3344.31 6095.47 3310.83 6079.97 3299.72 6049.76L3296.95 6042.21 3179.92 6085.14 3407.05 6704.26 3524.07 6661.32 3521.3 6653.77C3510.21 6623.54 3525.73 6590.04 3555.96 6578.95 3586.19 6567.86 3619.69 6583.38 3630.78 6613.61L3633.55 6621.16 3754.35 6576.84 3527.23 5957.73 3406.42 6002.05 3409.19 6009.6C3420.25 6039.83 3404.74 6073.3 3374.54 6084.42ZM3426.66 6011.76 3517.67 5978.37 3564.75 6106.72 3534.55 6117.8 3540.09 6132.9 3570.29 6121.82 3733.71 6567.28 3642.7 6600.67C3624.47 6563.85 3579.85 6548.78 3543.03 6567.01 3511.72 6582.51 3495.42 6617.71 3503.84 6651.61L3416.61 6683.62 3253.19 6238.16 3283.39 6227.08 3277.85 6211.98 3247.65 6223.06 3200.56 6094.7 3287.79 6062.7C3306.02 6099.52 3350.65 6114.59 3387.47 6096.36 3418.78 6080.86 3435.08 6045.66 3426.66 6011.76Z" stroke="#FFC000" stroke-width="6.89331" stroke-linecap="butt" stroke-linejoin="miter" stroke-miterlimit="4" stroke-opacity="1" fill="#FFC000" fill-rule="nonzero" fill-opacity="1"/><path d="M3504.35 6128.88 3509.89 6143.98 3464.59 6160.6 3459.05 6145.5Z" stroke="#FFC000" stroke-width="6.89331" stroke-linecap="butt" stroke-linejoin="miter" stroke-miterlimit="4" stroke-opacity="1" fill="#FFC000" fill-rule="nonzero" fill-opacity="1"/><path d="M3428.85 6156.58 3434.39 6171.68 3389.09 6188.3 3383.55 6173.2Z" stroke="#FFC000" stroke-width="6.89331" stroke-linecap="butt" stroke-linejoin="miter" stroke-miterlimit="4" stroke-opacity="1" fill="#FFC000" fill-rule="nonzero" fill-opacity="1"/><path d="M3353.35 6184.28 3358.89 6199.38 3313.59 6216 3308.05 6200.9Z" stroke="#FFC000" stroke-width="6.89331" stroke-linecap="butt" stroke-linejoin="miter" stroke-miterlimit="4" stroke-opacity="1" fill="#FFC000" fill-rule="nonzero" fill-opacity="1"/><path d="M3510.16 6238.11 3601.56 6487.27 3586.46 6492.81 3495.06 6243.65Z" stroke="#FFC000" stroke-width="6.89331" stroke-linecap="butt" stroke-linejoin="miter" stroke-miterlimit="4" stroke-opacity="1" fill="#FFC000" fill-rule="nonzero" fill-opacity="1"/><path d="M3488.54 6365.97 3541.16 6509.43 3526.06 6514.97 3473.43 6371.51Z" stroke="#FFC000" stroke-width="6.89331" stroke-linecap="butt" stroke-linejoin="miter" stroke-miterlimit="4" stroke-opacity="1" fill="#FFC000" fill-rule="nonzero" fill-opacity="1"/><path d="M3408.74 6335.28 3480.76 6531.59 3465.66 6537.13 3393.64 6340.82Z" stroke="#FFC000" stroke-width="6.89331" stroke-linecap="butt" stroke-linejoin="miter" stroke-miterlimit="4" stroke-opacity="1" fill="#FFC000" fill-rule="nonzero" fill-opacity="1"/><path d="M3725.64 6428.53 3699.23 6356.55 3645.66 6027.69 3582.37 6037.98 3576.72 6022.6 3658.95 6009.24 3727.2 6428.12C3727.32 6428.55 3727.06 6428.99 3726.63 6429.11 3726.2 6429.22 3725.76 6428.96 3725.64 6428.53Z" stroke="#FFC000" stroke-width="6.89331" stroke-linecap="butt" stroke-linejoin="miter" stroke-miterlimit="4" stroke-opacity="1" fill="#FFC000" fill-rule="nonzero" fill-opacity="1"/></g></g></g></g></g></svg>